<svg width="72" height="18" viewBox="0 0 72 18" fill="none" xmlns="http://www.w3.org/2000/svg">
<path d="M3.41833e-05 9.35999C3.41833e-05 7.71199 0.368034 6.23999 1.10403 4.94399C1.85603 3.63199 2.87203 2.61599 4.15203 1.89599C5.44803 1.15999 6.89603 0.791994 8.49603 0.791994C10.368 0.791994 12.008 1.27199 13.416 2.23199C14.824 3.19199 15.808 4.51999 16.368 6.21599H12.504C12.12 5.41599 11.576 4.81599 10.872 4.41599C10.184 4.01599 9.38403 3.81599 8.47203 3.81599C7.49603 3.81599 6.62403 4.04799 5.85603 4.51199C5.10403 4.95999 4.51203 5.59999 4.08003 6.43199C3.66403 7.26399 3.45603 8.23999 3.45603 9.35999C3.45603 10.464 3.66403 11.44 4.08003 12.288C4.51203 13.12 5.10403 13.768 5.85603 14.232C6.62403 14.68 7.49603 14.904 8.47203 14.904C9.38403 14.904 10.184 14.704 10.872 14.304C11.576 13.888 12.12 13.28 12.504 12.48H16.368C15.808 14.192 14.824 15.528 13.416 16.488C12.024 17.432 10.384 17.904 8.49603 17.904C6.89603 17.904 5.44803 17.544 4.15203 16.824C2.87203 16.088 1.85603 15.072 1.10403 13.776C0.368034 12.48 3.41833e-05 11.008 3.41833e-05 9.35999ZM22.5979 -5.72205e-06V17.76H19.2379V-5.72205e-06H22.5979ZM25.0536 11.064C25.0536 9.71999 25.3176 8.52799 25.8456 7.48799C26.3896 6.44799 27.1176 5.64799 28.0296 5.08799C28.9576 4.52799 29.9896 4.24799 31.1256 4.24799C32.1176 4.24799 32.9816 4.44799 33.7176 4.84799C34.4696 5.24799 35.0696 5.75199 35.5176 6.35999V4.46399H38.9016V17.76H35.5176V15.816C35.0856 16.44 34.4856 16.96 33.7176 17.376C32.9656 17.776 32.0936 17.976 31.1016 17.976C29.9816 17.976 28.9576 17.688 28.0296 17.112C27.1176 16.536 26.3896 15.728 25.8456 14.688C25.3176 13.632 25.0536 12.424 25.0536 11.064ZM35.5176 11.112C35.5176 10.296 35.3576 9.59999 35.0376 9.02399C34.7176 8.43199 34.2856 7.98399 33.7416 7.67999C33.1976 7.35999 32.6136 7.19999 31.9896 7.19999C31.3656 7.19999 30.7896 7.35199 30.2616 7.65599C29.7336 7.95999 29.3016 8.40799 28.9656 8.99999C28.6456 9.57599 28.4856 10.264 28.4856 11.064C28.4856 11.864 28.6456 12.568 28.9656 13.176C29.3016 13.768 29.7336 14.224 30.2616 14.544C30.8056 14.864 31.3816 15.024 31.9896 15.024C32.6136 15.024 33.1976 14.872 33.7416 14.568C34.2856 14.248 34.7176 13.8 35.0376 13.224C35.3576 12.632 35.5176 11.928 35.5176 11.112ZM45.5432 6.52799C45.9752 5.82399 46.5352 5.27199 47.2232 4.87199C47.9272 4.47199 48.7272 4.27199 49.6232 4.27199V7.79999H48.7352C47.6792 7.79999 46.8792 8.04799 46.3352 8.54399C45.8072 9.03999 45.5432 9.90399 45.5432 11.136V17.76H42.1832V4.46399H45.5432V6.52799ZM51.0223 11.064C51.0223 9.71999 51.2863 8.52799 51.8143 7.48799C52.3583 6.44799 53.0863 5.64799 53.9983 5.08799C54.9263 4.52799 55.9583 4.24799 57.0943 4.24799C58.0863 4.24799 58.9503 4.44799 59.6863 4.84799C60.4383 5.24799 61.0383 5.75199 61.4863 6.35999V4.46399H64.8703V17.76H61.4863V15.816C61.0543 16.44 60.4543 16.96 59.6863 17.376C58.9343 17.776 58.0623 17.976 57.0703 17.976C55.9503 17.976 54.9263 17.688 53.9983 17.112C53.0863 16.536 52.3583 15.728 51.8143 14.688C51.2863 13.632 51.0223 12.424 51.0223 11.064ZM61.4863 11.112C61.4863 10.296 61.3263 9.59999 61.0063 9.02399C60.6863 8.43199 60.2543 7.98399 59.7103 7.67999C59.1663 7.35999 58.5823 7.19999 57.9583 7.19999C57.3343 7.19999 56.7583 7.35199 56.2303 7.65599C55.7023 7.95999 55.2703 8.40799 54.9343 8.99999C54.6143 9.57599 54.4543 10.264 54.4543 11.064C54.4543 11.864 54.6143 12.568 54.9343 13.176C55.2703 13.768 55.7023 14.224 56.2303 14.544C56.7743 14.864 57.3503 15.024 57.9583 15.024C58.5823 15.024 59.1663 14.872 59.7103 14.568C60.2543 14.248 60.6863 13.8 61.0063 13.224C61.3263 12.632 61.4863 11.928 61.4863 11.112ZM69.64 17.928C69.032 17.928 68.528 17.744 68.128 17.376C67.744 16.992 67.552 16.52 67.552 15.96C67.552 15.4 67.744 14.936 68.128 14.568C68.528 14.184 69.032 13.992 69.64 13.992C70.232 13.992 70.72 14.184 71.104 14.568C71.488 14.936 71.68 15.4 71.68 15.96C71.68 16.52 71.488 16.992 71.104 17.376C70.72 17.744 70.232 17.928 69.64 17.928Z" fill="url(#paint0_linear_92_108)"/>
<defs>
<linearGradient id="paint0_linear_92_108" x1="36.16" y1="27.76" x2="36.16" y2="-8.24001" gradientUnits="userSpaceOnUse">
<stop stop-color="#C641F0"/>
<stop offset="1" stop-color="#F0A4FE"/>
</linearGradient>
</defs>
</svg>
